<?xml version="1.0" encoding="UTF-8"?>
<svg xmlns="http://www.w3.org/2000/svg" version="1.1" viewBox="0 0 1920 1080">
  <defs>
    <style>
      .cls-1 {
        fill: #fff;
      }
    </style>
  </defs>
  <!-- Generator: Adobe Illustrator 28.6.0, SVG Export Plug-In . SVG Version: 1.2.0 Build 709)  -->
  <g>
    <g id="Camada_1">
      <g>
        <path class="cls-1" d="M1077.76,682.56c-2.75-1.57-5.87-2.35-9.37-2.35-3.04,0-5.72.68-8.04,2.05-1.09.64-2.06,1.45-2.93,2.4v-17.8h-10.63v50.55h10.15v-4.21c.92,1.12,2,2.04,3.23,2.74,2.34,1.34,5.08,2.01,8.21,2.01,3.5,0,6.62-.79,9.37-2.35,2.75-1.57,4.93-3.75,6.54-6.57,1.61-2.82,2.42-6.13,2.42-9.94s-.81-7.13-2.42-9.95c-1.61-2.81-3.79-5.01-6.54-6.57ZM1074.7,704.53c-.84,1.54-1.96,2.71-3.34,3.51-1.39.79-2.96,1.19-4.73,1.19s-3.36-.4-4.77-1.19c-1.41-.79-2.53-1.97-3.37-3.51-.84-1.55-1.26-3.36-1.26-5.45s.42-3.96,1.26-5.46c.84-1.49,1.96-2.64,3.37-3.44,1.41-.8,3-1.2,4.77-1.2s3.35.4,4.73,1.2c1.38.79,2.5,1.94,3.34,3.44.84,1.5,1.26,3.32,1.26,5.46s-.42,3.9-1.26,5.45Z"/>
        <path class="cls-1" d="M1117.14,682.53c-2.88-1.55-6.12-2.32-9.71-2.32s-7.08.81-10.05,2.42c-2.97,1.62-5.29,3.85-6.95,6.72-1.66,2.86-2.49,6.11-2.49,9.74s.86,6.87,2.59,9.7c1.73,2.84,4.16,5.08,7.29,6.71,3.13,1.64,6.79,2.46,10.97,2.46,3.32,0,6.25-.51,8.79-1.53,2.55-1.02,4.66-2.49,6.34-4.4l-5.65-6.13c-1.22,1.18-2.58,2.07-4.05,2.66-1.48.59-3.17.89-5.08.89-2.22,0-4.13-.4-5.72-1.2-1.59-.79-2.84-1.94-3.75-3.44-.5-.82-.85-1.74-1.07-2.73h27.71c.04-.45.09-.94.14-1.46.04-.53.07-.99.07-1.4,0-3.95-.84-7.33-2.52-10.15-1.68-2.82-3.96-4.99-6.85-6.54ZM1098.46,695.88c.18-1.14.5-2.18.99-3.1.77-1.43,1.85-2.54,3.24-3.34,1.38-.79,2.98-1.19,4.8-1.19s3.41.4,4.77,1.19c1.36.8,2.43,1.9,3.2,3.31.51.93.83,1.99.98,3.14h-17.98Z"/>
        <path class="cls-1" d="M1158.18,684.16c-3.09-2.63-7.42-3.95-13.01-3.95-2.91,0-5.77.38-8.59,1.12-2.82.75-5.22,1.85-7.22,3.31l3.74,7.42c1.36-1.05,2.99-1.87,4.87-2.49,1.89-.61,3.81-.92,5.76-.92,2.86,0,4.98.64,6.37,1.9,1.39,1.27,2.08,3.05,2.08,5.32v.06h-8.38c-3.77,0-6.81.45-9.13,1.36-2.32.91-4.01,2.19-5.08,3.85-1.07,1.66-1.6,3.56-1.6,5.69s.56,3.97,1.67,5.66c1.11,1.68,2.69,3.01,4.73,3.98,2.04.98,4.47,1.47,7.29,1.47,3.22,0,5.86-.62,7.9-1.88,1.38-.84,2.47-1.93,3.27-3.24v4.57h9.95v-20.91c0-5.59-1.55-9.7-4.63-12.33ZM1152.19,705.83c-.59,1.68-1.6,2.93-3.03,3.75-1.43.82-3.06,1.23-4.87,1.23s-3.26-.4-4.33-1.2c-1.07-.79-1.6-1.87-1.6-3.23,0-1.23.46-2.25,1.4-3.07.93-.82,2.64-1.23,5.14-1.23h7.29v3.75Z"/>
        <path class="cls-1" d="M1220.89,698.16c-1.34-.75-2.78-1.33-4.33-1.74-1.54-.4-3.11-.72-4.7-.95-1.59-.23-3.04-.45-4.36-.68-1.32-.23-2.38-.58-3.2-1.06-.82-.47-1.23-1.17-1.23-2.08,0-.99.55-1.81,1.63-2.45,1.09-.64,2.86-.95,5.32-.95,1.63,0,3.35.2,5.14.61,1.8.41,3.56,1.12,5.28,2.11l3.61-7.56c-1.77-1-3.94-1.78-6.5-2.35-2.57-.57-5.12-.85-7.66-.85-3.54,0-6.56.5-9.06,1.5-2.5,1-4.43,2.4-5.79,4.19-1.36,1.79-2.05,3.85-2.05,6.16,0,2.09.4,3.79,1.19,5.11.8,1.32,1.86,2.35,3.2,3.1,1.34.75,2.79,1.33,4.36,1.74,1.57.4,3.14.72,4.73.95,1.59.23,3.03.45,4.33.68,1.29.23,2.34.56,3.13.99.79.44,1.19,1.08,1.19,1.94,0,1.05-.51,1.86-1.53,2.46-1.02.59-2.76.88-5.21.88-2.22,0-4.48-.32-6.78-.99-2.29-.66-4.3-1.49-6.03-2.49l-3.43,7.48-2.15-5.77c-1.18.9-2.64,1.36-4.36,1.36-1.36,0-2.44-.43-3.23-1.29-.8-.86-1.2-2.07-1.2-3.61v-14.85h9.06v-8.18h-9.06v-8.92h-10.69v8.92h-5.65v8.18h5.65v15.06c0,4.36,1.2,7.64,3.61,9.84,2.41,2.2,5.77,3.31,10.08,3.31,1.64,0,3.22-.19,4.73-.58,1.52-.39,2.81-.97,3.85-1.74l-.59-1.58c1.71,1.1,3.97,2.03,6.78,2.77,2.86.75,5.86,1.12,8.99,1.12,3.68,0,6.8-.5,9.37-1.5,2.57-1,4.53-2.37,5.89-4.12,1.36-1.75,2.05-3.73,2.05-5.96,0-2.09-.4-3.79-1.19-5.11-.8-1.32-1.86-2.35-3.2-3.1Z"/>
        <path class="cls-1" d="M1275.66,682.56c-2.75-1.57-5.87-2.35-9.37-2.35-3.13,0-5.87.68-8.21,2.05-1.23.72-2.31,1.64-3.23,2.75v-4.25h-10.15v49.87h10.63v-17.12c.86.96,1.84,1.76,2.93,2.41,2.32,1.36,4.99,2.05,8.04,2.05,3.5,0,6.62-.79,9.37-2.35,2.75-1.57,4.93-3.75,6.54-6.54,1.61-2.79,2.42-6.12,2.42-9.98s-.81-7.13-2.42-9.95c-1.61-2.81-3.79-5.01-6.54-6.57ZM1272.6,704.49c-.84,1.53-1.96,2.7-3.34,3.51-1.39.81-2.97,1.22-4.73,1.22s-3.36-.41-4.77-1.22c-1.41-.82-2.53-1.99-3.37-3.51-.84-1.52-1.26-3.33-1.26-5.41s.42-3.96,1.26-5.46c.84-1.49,1.96-2.64,3.37-3.44,1.41-.8,3-1.2,4.77-1.2s3.35.4,4.73,1.2c1.38.79,2.5,1.94,3.34,3.44.84,1.5,1.26,3.32,1.26,5.46s-.42,3.89-1.26,5.41Z"/>
        <path class="cls-1" d="M1315.04,682.53c-2.88-1.55-6.12-2.32-9.71-2.32s-7.08.81-10.05,2.42c-2.97,1.62-5.29,3.85-6.95,6.72-1.66,2.86-2.49,6.11-2.49,9.74s.86,6.87,2.59,9.7c1.73,2.84,4.16,5.08,7.29,6.71,3.13,1.64,6.79,2.46,10.97,2.46,3.32,0,6.25-.51,8.79-1.53,2.55-1.02,4.66-2.49,6.34-4.4l-5.65-6.13c-1.22,1.18-2.58,2.07-4.05,2.66-1.48.59-3.17.89-5.08.89-2.22,0-4.13-.4-5.72-1.2-1.59-.79-2.84-1.94-3.75-3.44-.5-.82-.85-1.74-1.07-2.73h27.71c.04-.45.09-.94.14-1.46.04-.53.07-.99.07-1.4,0-3.95-.84-7.33-2.52-10.15-1.68-2.82-3.96-4.99-6.85-6.54ZM1296.37,695.88c.18-1.14.5-2.18.99-3.1.77-1.43,1.85-2.54,3.24-3.34,1.38-.79,2.98-1.19,4.8-1.19s3.41.4,4.77,1.19c1.36.8,2.43,1.9,3.2,3.31.51.93.83,1.99.98,3.14h-17.98Z"/>
        <path class="cls-1" d="M1338.44,685.57v-4.82h-10.15v36.65h10.63v-17.3c0-3.5.89-6.09,2.66-7.77,1.77-1.68,4.16-2.52,7.15-2.52.36,0,.74.03,1.12.07.38.05.78.11,1.19.2v-9.88c-3.45,0-6.38.67-8.79,2.01-1.55.86-2.81,1.98-3.82,3.35Z"/>
        <path class="cls-1" d="M1425.2,681.95c-2.25-1.16-4.83-1.74-7.73-1.74-3.54,0-6.65.85-9.33,2.55-1.52.97-2.8,2.13-3.86,3.45-.86-1.4-1.96-2.55-3.3-3.45-2.54-1.7-5.49-2.55-8.86-2.55-2.95,0-5.61.65-7.97,1.94-1.35.74-2.5,1.7-3.47,2.84v-4.23h-10.15v36.65h10.63v-18.39c0-2.22.34-4.03,1.02-5.42.68-1.38,1.63-2.43,2.86-3.13,1.22-.71,2.61-1.06,4.15-1.06,2.27,0,4.01.71,5.21,2.11,1.2,1.41,1.81,3.59,1.81,6.54v19.35h10.63v-18.39c0-2.22.33-4.03.99-5.42.66-1.38,1.6-2.43,2.83-3.13,1.23-.71,2.63-1.06,4.23-1.06,2.18,0,3.87.71,5.08,2.11,1.2,1.41,1.81,3.59,1.81,6.54v19.35h10.63v-20.99c0-3.72-.64-6.77-1.91-9.16-1.27-2.38-3.03-4.16-5.28-5.31Z"/>
        <path class="cls-1" d="M1448.9,665.39c-1.25-1.07-2.85-1.6-4.8-1.6s-3.61.57-4.84,1.71c-1.22,1.13-1.84,2.54-1.84,4.22s.61,3.09,1.84,4.22c1.23,1.14,2.84,1.7,4.84,1.7s3.61-.58,4.84-1.73c1.23-1.16,1.84-2.62,1.84-4.4,0-1.68-.62-3.05-1.87-4.12Z"/>
        <rect class="cls-1" x="1438.78" y="680.76" width="10.63" height="36.65"/>
        <path class="cls-1" d="M1486.17,681.95c-2.29-1.16-4.89-1.74-7.8-1.74-3.13,0-5.93.66-8.38,1.97-1.46.78-2.69,1.79-3.75,2.98v-4.41h-10.15v36.65h10.63v-18.12c0-2.32.37-4.18,1.12-5.59s1.79-2.47,3.13-3.2c1.34-.73,2.85-1.09,4.53-1.09,2.36,0,4.19.71,5.49,2.11,1.29,1.41,1.94,3.59,1.94,6.54v19.35h10.63v-20.99c0-3.72-.66-6.77-1.97-9.16-1.32-2.38-3.12-4.16-5.42-5.31Z"/>
        <path class="cls-1" d="M1526.33,698.95c0,2.18-.38,3.99-1.12,5.45-.75,1.45-1.76,2.54-3.03,3.27-1.27.73-2.72,1.09-4.36,1.09-2.36,0-4.19-.71-5.49-2.14-1.3-1.44-1.94-3.7-1.94-6.78v-19.08h-10.63v20.71c0,3.72.66,6.81,1.98,9.26,1.32,2.46,3.16,4.27,5.52,5.45,2.36,1.18,5.09,1.77,8.17,1.77,2.82,0,5.4-.65,7.77-1.94,1.4-.76,2.6-1.75,3.61-2.96v4.35h10.08v-36.65h-10.56v18.19Z"/>
        <path class="cls-1" d="M1559.98,709.5c-1.36,0-2.44-.43-3.23-1.29-.8-.86-1.2-2.07-1.2-3.61v-14.85h9.06v-8.18h-9.06v-8.92h-10.69v8.92h-5.65v8.18h5.65v15.06c0,4.36,1.2,7.64,3.61,9.84,2.41,2.2,5.77,3.31,10.08,3.31,1.64,0,3.22-.19,4.73-.58,1.52-.39,2.81-.97,3.85-1.74l-2.79-7.49c-1.18.9-2.64,1.36-4.36,1.36Z"/>
        <path class="cls-1" d="M1596.53,682.53c-2.88-1.55-6.12-2.32-9.71-2.32s-7.08.81-10.05,2.42c-2.97,1.62-5.29,3.85-6.95,6.72-1.66,2.86-2.49,6.11-2.49,9.74s.86,6.87,2.59,9.7c1.73,2.84,4.16,5.08,7.29,6.71,3.13,1.64,6.79,2.46,10.97,2.46,3.32,0,6.24-.51,8.79-1.53,2.55-1.02,4.66-2.49,6.34-4.4l-5.65-6.13c-1.22,1.18-2.58,2.07-4.05,2.66-1.48.59-3.17.89-5.08.89-2.22,0-4.13-.4-5.72-1.2-1.59-.79-2.84-1.94-3.75-3.44-.5-.82-.85-1.74-1.07-2.73h27.71c.04-.45.09-.94.14-1.46.04-.53.07-.99.07-1.4,0-3.95-.84-7.33-2.52-10.15-1.68-2.82-3.96-4.99-6.85-6.54ZM1577.85,695.88c.18-1.14.5-2.18.99-3.1.77-1.43,1.85-2.54,3.24-3.34,1.38-.79,2.98-1.19,4.8-1.19s3.41.4,4.77,1.19c1.36.8,2.43,1.9,3.2,3.31.51.93.83,1.99.98,3.14h-17.98Z"/>
        <path class="cls-1" d="M1613.8,704.67c-1.82,0-3.37.61-4.67,1.84-1.29,1.23-1.94,2.84-1.94,4.83s.65,3.49,1.94,4.73c1.3,1.25,2.85,1.88,4.67,1.88s3.43-.62,4.7-1.88c1.27-1.25,1.91-2.83,1.91-4.73s-.64-3.6-1.91-4.83c-1.27-1.23-2.84-1.84-4.7-1.84Z"/>
        <path class="cls-1" d="M274.87,471.69c-9.93-5.66-20.96-8.49-33.1-8.49-11.32,0-21,2.5-29.04,7.51-2.97,1.85-5.67,4.05-8.12,6.61v-60.87h-46.76v182.6h44.79v-13.06c2.7,3.13,5.77,5.76,9.23,7.9,7.96,4.92,17.92,7.38,29.9,7.38s23.17-2.83,33.1-8.49c9.92-5.66,17.8-13.62,23.62-23.87,5.82-10.25,8.74-22.43,8.74-36.54s-2.91-26.54-8.74-36.79c-5.82-10.25-13.7-18.21-23.62-23.87ZM256.17,549.45c-2.55,4.84-5.91,8.49-10.09,10.95s-8.9,3.69-14.15,3.69-9.97-1.23-14.15-3.69c-4.18-2.46-7.55-6.11-10.09-10.95-2.55-4.84-3.82-10.54-3.82-17.1,0-7.05,1.27-12.88,3.82-17.47,2.54-4.59,5.91-8.12,10.09-10.58,4.18-2.46,8.9-3.69,14.15-3.69s9.97,1.23,14.15,3.69c4.18,2.46,7.54,5.99,10.09,10.58,2.54,4.59,3.81,10.42,3.81,17.47,0,6.56-1.27,12.27-3.81,17.1Z"/>
        <path class="cls-1" d="M430.88,471.81c-9.93-5.74-20.96-8.61-33.1-8.61s-21.94,2.5-29.9,7.51c-3.46,2.17-6.53,4.83-9.23,7.96v-13.25h-44.79v181.37h46.76v-59.64c2.44,2.55,5.15,4.76,8.12,6.61,8.04,5,17.72,7.51,29.04,7.51,12.14,0,23.17-2.79,33.1-8.37,9.92-5.58,17.8-13.54,23.62-23.87,5.82-10.33,8.74-22.47,8.74-36.42s-2.91-26.53-8.74-36.79c-5.82-10.25-13.7-18.25-23.62-23.99ZM412.18,549.57c-2.55,4.76-5.91,8.37-10.09,10.83s-8.9,3.69-14.15,3.69-9.97-1.23-14.15-3.69c-4.18-2.46-7.55-6.07-10.09-10.83-2.55-4.76-3.82-10.41-3.82-16.98,0-7.05,1.27-12.92,3.82-17.6,2.54-4.67,5.91-8.24,10.09-10.7,4.18-2.46,8.9-3.69,14.15-3.69s9.97,1.23,14.15,3.69c4.18,2.46,7.54,6.03,10.09,10.7,2.54,4.68,3.81,10.54,3.81,17.6,0,6.57-1.27,12.22-3.81,16.98Z"/>
        <path class="cls-1" d="M988.03,549.39c-2.76,2.21-4.14,5.37-4.14,9.47,0,3.79,1.42,6.9,4.25,9.35,2.84,2.45,6.72,3.67,11.64,3.67s9.07-1.22,12.88-3.67c3.81-2.45,6.53-6.19,8.17-11.24v-10.89h-18.36c-6.87,0-11.68,1.11-14.44,3.32Z"/>
        <path class="cls-1" d="M1749.58,355.45h-887.54c-43.53,0-83.85,22.88-106.17,60.25l-58.71,98.29c-.8-9.86-3.02-18.18-6.66-24.96-4.68-8.69-11.07-15.17-19.2-19.44-8.12-4.26-17.35-6.4-27.69-6.4-12.47,0-23.5,3.12-33.1,9.35-5.06,3.29-9.44,7.22-13.15,11.74-3.04-4.83-6.81-8.78-11.33-11.87-9.02-6.15-19.61-9.23-31.74-9.23-10.5,0-20.02,2.46-28.55,7.38-4.14,2.39-7.82,5.32-11.07,8.79v-13.96h-44.79v133.62h46.76v-65.95c0-7.05,1.02-12.75,3.08-17.1,2.05-4.35,4.88-7.59,8.49-9.72,3.61-2.13,7.63-3.2,12.06-3.2,6.4,0,11.36,2.18,14.89,6.52,3.52,4.35,5.29,11.28,5.29,20.79v68.66h46.75v-65.95c0-7.05.98-12.75,2.96-17.1,1.97-4.35,4.71-7.59,8.24-9.72,3.53-2.13,7.59-3.2,12.18-3.2,6.23,0,11.16,2.18,14.77,6.52,3.6,4.35,5.41,11.28,5.41,20.79v67.64c-3.28,23.58,14.76,46.95,40.99,46.95h887.54c43.53,0,83.85-22.88,106.17-60.25l99.6-166.76c16.45-27.54-3.39-62.51-35.48-62.51ZM865.88,598.16l-22.84-70.21-23.73,70.21h-41.43l-42.77-128.55h40.08l24.77,77.87,26.06-77.87h36.05l25.09,78.37,25.74-78.37h37.39l-43.21,128.55h-41.2ZM1063.38,598.16h-39.63v-16.83c-2.45,5.04-5.79,9.17-10.19,12.21-6.5,4.5-15.04,6.75-25.64,6.75-9.55,0-17.73-1.74-24.52-5.21-6.79-3.47-11.94-8.2-15.45-14.2-3.51-5.99-5.26-12.62-5.26-19.88,0-7.89,1.91-14.76,5.71-20.6,3.81-5.84,9.7-10.3,17.69-13.38,7.98-3.08,18.17-4.62,30.56-4.62h24.04c-.35-6.16-2.3-11.05-6.01-14.56-4.11-3.86-10.64-5.8-19.59-5.8-5.82,0-11.76,1.03-17.8,3.08-6.05,2.05-11.16,4.66-15.34,7.81l-14.11-30.3c6.87-4.73,15.11-8.44,24.74-11.13,9.63-2.68,19.22-4.02,28.77-4.02,19.71,0,34.97,4.82,45.79,14.44,10.82,9.63,16.23,24.62,16.23,44.98v71.26ZM1147,598.51c-5.15,1.19-10.56,1.78-16.23,1.78-15.53,0-27.62-4.06-36.27-12.19-8.66-8.13-12.99-20.4-12.99-36.81v-43.09h-17.69v-33.62h17.69v-33.62h42.54v33.62h27.77v33.62h-27.77v42.38c0,4.89,1.16,8.61,3.47,11.13,2.31,2.53,5.41,3.79,9.29,3.79,4.93,0,9.26-1.34,12.99-4.02l10.75,31.25c-3.88,2.69-8.4,4.62-13.55,5.8ZM1201.97,550.57c2.39,4.58,5.56,8.05,9.52,10.42,3.96,2.37,8.4,3.55,13.32,3.55s9.48-1.38,13.66-4.14c4.18-2.76,7.69-7.14,10.52-13.14l32.92,17.75c-4.18,11.05-11.27,19.69-21.27,25.93-10,6.24-21.87,9.35-35.6,9.35s-25.6-2.84-36.05-8.52c-10.45-5.68-18.66-13.53-24.63-23.56-5.97-10.02-8.96-21.42-8.96-34.21s2.98-24.38,8.96-34.33c5.97-9.94,14.18-17.79,24.63-23.55,10.45-5.76,22.46-8.64,36.05-8.64s25.6,3.12,35.6,9.35c10,6.24,17.09,14.88,21.27,25.93l-32.92,17.99c-2.84-5.99-6.35-10.38-10.52-13.14-4.18-2.76-8.73-4.14-13.66-4.14s-9.37,1.19-13.32,3.55c-3.96,2.37-7.13,5.76-9.52,10.18-2.39,4.42-3.58,10.02-3.58,16.81s1.19,12,3.58,16.57ZM1413.57,598.16h-42.77v-66.05c0-9.15-1.76-15.82-5.26-20-3.51-4.18-8.25-6.27-14.22-6.27-4.63,0-8.81,1.07-12.54,3.2-3.73,2.13-6.64,5.41-8.73,9.82-2.09,4.42-3.13,10.26-3.13,17.52v61.79h-42.54v-175.66h42.54v59.51c2.78-2.79,5.79-5.28,9.18-7.31,8.06-4.81,17.16-7.22,27.32-7.22,9.4,0,17.91,2.05,25.53,6.15,7.61,4.11,13.62,10.34,18.02,18.7,4.4,8.37,6.61,19.18,6.61,32.43v73.39ZM1520.37,594.96c-8.51,3.55-18.51,5.33-30,5.33-14.48,0-27.06-2.88-37.73-8.64-10.67-5.76-18.96-13.65-24.85-23.67-5.9-10.02-8.84-21.34-8.84-33.97s2.87-24.42,8.62-34.44c5.74-10.02,13.66-17.87,23.74-23.56,10.07-5.68,21.53-8.52,34.37-8.52,11.94,0,22.8,2.64,32.58,7.93,9.78,5.29,17.61,12.87,23.51,22.73,5.89,9.87,8.85,21.9,8.85,36.1,0,1.58-.08,3.4-.22,5.45-.15,2.05-.3,3.95-.45,5.68h-88.09c.6,2.28,1.39,4.43,2.44,6.39,2.46,4.58,6.01,8.09,10.64,10.54,4.62,2.45,10.15,3.67,16.57,3.67s11.27-.91,15.45-2.72c4.18-1.81,8.36-4.61,12.54-8.4l22.17,24.86c-5.68,6.63-12.76,11.72-21.27,15.27ZM1654.06,579.46c-4.48,6.31-11.2,11.36-20.15,15.15-8.96,3.79-20,5.68-33.14,5.68-10.3,0-20.34-1.26-30.12-3.79-9.78-2.52-17.65-5.68-23.62-9.47l12.54-30.78c5.82,3.63,12.54,6.55,20.15,8.76,7.61,2.21,15.08,3.32,22.39,3.32s12.13-.83,14.89-2.49c2.76-1.66,4.14-3.91,4.14-6.75,0-2.37-1.27-4.18-3.81-5.45-2.54-1.26-5.97-2.17-10.3-2.72-4.33-.55-8.99-1.19-13.99-1.9-5-.71-10.11-1.81-15.34-3.31-5.23-1.5-9.96-3.59-14.22-6.27-4.25-2.68-7.65-6.39-10.19-11.13-2.54-4.73-3.81-10.73-3.81-17.99,0-8.21,2.27-15.51,6.83-21.9,4.55-6.39,11.2-11.48,19.93-15.27,8.73-3.79,19.51-5.68,32.36-5.68,8.51,0,17.13.95,25.86,2.84,8.73,1.89,16.08,4.66,22.05,8.28l-12.76,30.78c-5.97-3.79-11.94-6.31-17.91-7.58-5.97-1.26-11.57-1.89-16.79-1.89-7.16,0-12.28.83-15.34,2.48-3.06,1.66-4.59,3.75-4.59,6.27s1.34,4.46,4.03,5.8c2.69,1.34,6.12,2.37,10.3,3.08,4.18.71,8.85,1.42,14,2.13,5.15.71,10.26,1.78,15.34,3.2,5.07,1.42,9.7,3.51,13.88,6.27,4.18,2.76,7.58,6.47,10.19,11.13,2.61,4.66,3.92,10.69,3.92,18.11s-2.24,14.76-6.72,21.07Z"/>
        <path class="cls-1" d="M1508.17,513.29c-2.17-4.34-5.11-7.69-8.85-10.06-3.73-2.37-8.14-3.55-13.21-3.55s-9.78,1.19-13.66,3.55c-3.88,2.37-6.83,5.72-8.84,10.06-1.18,2.54-1.97,5.36-2.46,8.4h49.59c-.47-3.02-1.3-5.84-2.57-8.4Z"/>
      </g>
    </g>
  </g>
</svg>